<svg width="28" height="28" viewBox="0 0 28 28" fill="none" xmlns="http://www.w3.org/2000/svg">
<path opacity="0.5" d="M14 0C6.26801 0 0 6.26801 0 14C0 21.732 6.26801 28 14 28C21.732 28 28 21.732 28 14C28 6.26801 21.732 0 14 0Z" fill="#601DFF"/>
<path fill-rule="evenodd" clip-rule="evenodd" d="M8.35146 8.35148C8.82009 7.88285 9.57989 7.88285 10.0485 8.35148L11.6485 9.95148C11.7172 10.0202 11.7759 10.0952 11.8245 10.1746C12.4661 9.80892 13.2086 9.60001 14 9.60001C14.7913 9.60001 15.5339 9.80892 16.1755 10.1746C16.2241 10.0952 16.2827 10.0202 16.3515 9.95148L17.9515 8.35148C18.4201 7.88285 19.1799 7.88285 19.6485 8.35148C20.1172 8.82011 20.1172 9.57991 19.6485 10.0485L18.0485 11.6485C17.9798 11.7173 17.9048 11.7759 17.8254 11.8245C18.1911 12.4661 18.4 13.2087 18.4 14C18.4 14.7914 18.1911 15.5339 17.8254 16.1755C17.9048 16.2241 17.9798 16.2828 18.0485 16.3515L19.6485 17.9515C20.1172 18.4201 20.1172 19.1799 19.6485 19.6485C19.1799 20.1172 18.4201 20.1172 17.9515 19.6485L16.3515 18.0485C16.2827 17.9798 16.2241 17.9048 16.1755 17.8254C15.5339 18.1911 14.7913 18.4 14 18.4C13.2086 18.4 12.4661 18.1911 11.8245 17.8254C11.7759 17.9048 11.7172 17.9798 11.6485 18.0485L10.0485 19.6485C9.57989 20.1172 8.82009 20.1172 8.35146 19.6485C7.88284 19.1799 7.88284 18.4201 8.35146 17.9515L9.95147 16.3515C10.0202 16.2828 10.0952 16.2241 10.1746 16.1755C9.80891 15.5339 9.59999 14.7914 9.59999 14C9.59999 13.2087 9.80891 12.4661 10.1746 11.8245C10.0952 11.7759 10.0202 11.7173 9.95147 11.6485L8.35146 10.0485C7.88284 9.57991 7.88284 8.82011 8.35146 8.35148ZM12 14C12 12.8954 12.8954 12 14 12C15.1046 12 16 12.8954 16 14C16 15.1046 15.1046 16 14 16C12.8954 16 12 15.1046 12 14Z" fill="url(#paint0_linear_246_308)"/>
<defs>
<linearGradient id="paint0_linear_246_308" x1="14" y1="8" x2="14" y2="20" gradientUnits="userSpaceOnUse">
<stop stop-color="white"/>
<stop offset="1" stop-color="#999999"/>
</linearGradient>
</defs>
</svg>
