<svg width="61" height="60" viewBox="0 0 61 60" fill="none" xmlns="http://www.w3.org/2000/svg">
<path opacity="0.5" d="M30.5006 40C16.1008 40 13.5498 25.6489 13.0979 14.2662C12.9722 11.0999 12.9094 9.51682 14.0987 8.05208C15.288 6.58734 16.7114 6.34718 19.5582 5.86686C22.3683 5.39272 26.0418 5 30.5006 5C34.9595 5 38.6329 5.39272 41.4431 5.86686C44.2899 6.34718 45.7133 6.58734 46.9026 8.05208C48.0919 9.51682 48.029 11.0999 47.9033 14.2662C47.4514 25.6489 44.9005 40 30.5006 40Z" fill="#BFBFBF"/>
<path d="M44.6009 31.0551L51.6422 27.1431C53.5233 26.0981 54.4638 25.5755 54.9818 24.6952C55.4998 23.815 55.4998 22.739 55.4999 20.5872L55.4999 20.4058C55.4999 17.7968 55.5 16.4923 54.7921 15.5102C54.0843 14.5281 52.8467 14.1156 50.3716 13.2905L48 12.5L47.9577 12.7116C47.946 13.1848 47.9256 13.7002 47.9031 14.2661C47.6823 19.8271 46.9605 26.0966 44.6009 31.0551Z" fill="#BFBFBF"/>
<path d="M13.0977 14.2662C13.3185 19.8274 14.0403 26.0972 16.4002 31.0557L9.35762 27.1431C7.47658 26.0981 6.53604 25.5755 6.01807 24.6952C5.5001 23.815 5.50007 22.739 5.50001 20.5872L5.5 20.4058C5.49993 17.7968 5.4999 16.4923 6.20774 15.5102C6.91559 14.5281 8.15316 14.1156 10.6283 13.2905L12.9999 12.5L13.0432 12.7168C13.0549 13.1885 13.0753 13.7022 13.0977 14.2662Z" fill="#BFBFBF"/>
<path fill-rule="evenodd" clip-rule="evenodd" d="M13.625 55C13.625 53.9645 14.4645 53.125 15.5 53.125H45.5C46.5355 53.125 47.375 53.9645 47.375 55C47.375 56.0355 46.5355 56.875 45.5 56.875H15.5C14.4645 56.875 13.625 56.0355 13.625 55Z" fill="#BFBFBF"/>
<path opacity="0.5" d="M39.1444 53.125H21.8564L22.5985 48.7504C22.8322 47.5819 23.8582 46.7407 25.0499 46.7407H35.9509C37.1426 46.7407 38.1687 47.5819 38.4024 48.7504L39.1444 53.125Z" fill="#BFBFBF"/>
<path d="M30.5004 40.0004C29.8515 40.0004 29.2267 39.9712 28.625 39.9146V46.7407H32.375V39.9146C31.7736 39.9713 31.149 40.0004 30.5004 40.0004Z" fill="#BFBFBF"/>
<path d="M28.3649 15.0563C29.3149 13.3521 29.7899 12.5 30.5 12.5C31.2101 12.5 31.6851 13.3521 32.6351 15.0563L32.8809 15.4972C33.1509 15.9815 33.2858 16.2236 33.4963 16.3834C33.7068 16.5431 33.9689 16.6024 34.4931 16.721L34.9703 16.829C36.8151 17.2464 37.7375 17.4551 37.9569 18.1608C38.1764 18.8665 37.5476 19.6018 36.2899 21.0724L35.9646 21.4529C35.6072 21.8708 35.4285 22.0798 35.3481 22.3383C35.2677 22.5968 35.2947 22.8756 35.3488 23.4332L35.398 23.9408C35.5881 25.9029 35.6832 26.884 35.1086 27.3202C34.5341 27.7563 33.6705 27.3587 31.9432 26.5634L31.4964 26.3576C31.0056 26.1316 30.7601 26.0186 30.5 26.0186C30.2399 26.0186 29.9944 26.1316 29.5036 26.3576L29.0568 26.5634C27.3295 27.3587 26.4659 27.7563 25.8914 27.3202C25.3168 26.884 25.4119 25.903 25.602 23.9408L25.6512 23.4332C25.7053 22.8756 25.7323 22.5968 25.6519 22.3383C25.5715 22.0798 25.3928 21.8708 25.0354 21.4529L24.7101 21.0724C23.4524 19.6018 22.8236 18.8665 23.0431 18.1608C23.2625 17.4551 24.1849 17.2464 26.0297 16.829L26.5069 16.721C27.0311 16.6024 27.2932 16.5431 27.5037 16.3834C27.7142 16.2236 27.8491 15.9815 28.1191 15.4972L28.3649 15.0563Z" fill="white"/>
</svg>
