<svg width="16" height="16" viewBox="0 0 16 16" fill="none" xmlns="http://www.w3.org/2000/svg">
<path opacity="0.5" d="M1.33334 10.6667C1.33334 8.78107 1.33334 7.83826 1.91913 7.25247C2.50492 6.66669 3.44773 6.66669 5.33334 6.66669H10.6667C12.5523 6.66669 13.4951 6.66669 14.0809 7.25247C14.6667 7.83826 14.6667 8.78107 14.6667 10.6667C14.6667 12.5523 14.6667 13.4951 14.0809 14.0809C13.4951 14.6667 12.5523 14.6667 10.6667 14.6667H5.33334C3.44773 14.6667 2.50492 14.6667 1.91913 14.0809C1.33334 13.4951 1.33334 12.5523 1.33334 10.6667Z" fill="url(#paint0_linear_73_2876)"/>
<path d="M7.99999 12C8.73637 12 9.33332 11.403 9.33332 10.6666C9.33332 9.93027 8.73637 9.33331 7.99999 9.33331C7.26361 9.33331 6.66666 9.93027 6.66666 10.6666C6.66666 11.403 7.26361 12 7.99999 12Z" fill="url(#paint1_linear_73_2876)"/>
<path d="M4.5 5.33331C4.5 3.40032 6.067 1.83331 8 1.83331C9.933 1.83331 11.5 3.40032 11.5 5.33331V6.66903C11.8782 6.67256 12.209 6.68132 12.5 6.70305V5.33331C12.5 2.84803 10.4853 0.833313 8 0.833313C5.51472 0.833313 3.5 2.84803 3.5 5.33331V6.70305C3.79101 6.68132 4.12176 6.67256 4.5 6.66903V5.33331Z" fill="url(#paint2_linear_73_2876)"/>
<defs>
<linearGradient id="paint0_linear_73_2876" x1="2.16668" y1="0.916687" x2="4.37761" y2="13.5506" gradientUnits="userSpaceOnUse">
<stop stop-color="white"/>
<stop offset="1" stop-color="#A3A3A3"/>
</linearGradient>
<linearGradient id="paint1_linear_73_2876" x1="6.83332" y1="7.41665" x2="7.99999" y2="11.4166" gradientUnits="userSpaceOnUse">
<stop stop-color="white"/>
<stop offset="1" stop-color="#A3A3A3"/>
</linearGradient>
<linearGradient id="paint2_linear_73_2876" x1="4.0625" y1="-3.38556" x2="5.81635" y2="5.83443" gradientUnits="userSpaceOnUse">
<stop stop-color="white"/>
<stop offset="1" stop-color="#A3A3A3"/>
</linearGradient>
</defs>
</svg>
