<svg width="168" height="28" viewBox="0 0 168 28" fill="none" xmlns="http://www.w3.org/2000/svg">
<path d="M120.451 7.19677C121.578 7.19677 122.491 6.25859 122.491 5.10132C122.491 3.94404 121.578 3.00586 120.451 3.00586C119.324 3.00586 118.411 3.94404 118.411 5.10132C118.411 6.25859 119.324 7.19677 120.451 7.19677Z" fill="url(#paint0_linear_930_6649)"/>
<path d="M2.89942 12.2791C2.14475 14.8382 2.38681 17.7337 3.63985 20.2198C4.29485 21.4482 5.17768 22.5596 6.27411 23.437C7.37051 24.3144 8.65202 24.914 10.0048 25.2504C12.7102 25.8792 15.6292 25.3235 17.879 23.7587C20.143 22.194 21.6524 19.7079 22.108 17.0903C22.5779 14.458 21.9656 11.7526 20.556 9.6468C19.1605 7.54096 17.0246 6.03471 14.6609 5.50826C12.34 4.98181 9.81965 5.2304 7.62682 6.42956C5.40552 7.58483 3.65409 9.7199 2.89942 12.2791ZM0.236703 11.621C0.863225 8.28677 2.84246 5.15728 5.69028 3.16845C7.12846 2.20328 8.7517 1.50134 10.4746 1.17962C12.1976 0.857897 13.9775 0.945639 15.6719 1.38435C19.0609 2.2764 22.0368 4.6162 23.7028 7.70182C25.383 10.7728 25.7389 14.5019 24.7992 17.763C23.8879 21.0387 21.6524 23.8172 18.8615 25.382C16.0849 26.9906 12.7244 27.4294 9.70573 26.6104C6.68703 25.8061 3.92465 23.905 2.14475 21.1849C0.307899 18.4942 -0.418299 14.9552 0.236703 11.621Z" fill="#23202A"/>
<path d="M13.2512 14.9996C13.0091 15.5553 13.0803 16.2426 13.4078 16.9299C13.7211 17.6026 14.2337 18.2461 14.789 18.8164C15.8997 19.9863 17.2809 20.9076 18.6621 21.7704C20.0575 22.6186 21.5811 23.2913 23.1189 23.6423C24.5998 24.0078 26.3369 23.9493 26.9065 23.1012C27.1913 22.6917 27.2625 21.9898 27.0347 21.244C26.8211 20.4981 26.4366 19.7523 25.9382 19.065C24.9415 17.6757 23.6031 16.5351 22.1364 15.5992C20.6556 14.7071 19.0323 14.0198 17.3378 13.8004C16.4977 13.6981 15.6576 13.6981 14.9029 13.8882C14.134 14.049 13.5075 14.4585 13.2512 14.9996ZM11.9412 14.2245C12.6104 13.1716 13.7211 12.7183 14.6751 12.6013C15.6576 12.4697 16.6116 12.572 17.5087 12.7622C19.3313 13.1424 21.0115 13.8589 22.6063 14.7656C24.2011 15.6723 25.6961 16.7691 26.9635 18.2022C27.59 18.9188 28.1738 19.7085 28.5725 20.6736C28.9712 21.6095 29.1848 22.8964 28.601 24.0956C27.9745 25.2801 26.7783 25.8797 25.7531 26.099C24.6995 26.333 23.6885 26.333 22.706 26.2014C20.741 25.9382 18.9326 25.207 17.2666 24.2711C15.6007 23.3059 14.134 21.9751 12.9949 20.3373C12.4396 19.5037 11.9554 18.597 11.6707 17.5734C11.3716 16.579 11.3004 15.2921 11.9412 14.2245Z" fill="#23202A"/>
<path d="M12.5105 16.8005C13.6508 16.8005 14.5751 15.8511 14.5751 14.68C14.5751 13.5089 13.6508 12.5596 12.5105 12.5596C11.3702 12.5596 10.4458 13.5089 10.4458 14.68C10.4458 15.8511 11.3702 16.8005 12.5105 16.8005Z" fill="url(#paint1_linear_930_6649)"/>
<path d="M54.3853 19.7583C55.0576 18.9945 55.5853 18.1058 55.9535 17.117C56.3214 16.1283 56.5086 15.0365 56.5086 13.8713C56.5086 12.5671 56.2728 11.3581 55.8073 10.2788C55.3419 9.19952 54.6818 8.25923 53.8424 7.48605C53.0013 6.70976 51.9732 6.09904 50.787 5.67107C49.5978 5.2431 48.2638 5.02441 46.8251 5.02441C45.3788 5.02441 44.0435 5.24153 42.8556 5.67264C41.6739 6.1006 40.6474 6.71132 39.8062 7.48761C38.9669 8.26233 38.3052 9.20108 37.8414 10.2804C37.3761 11.3597 37.1404 12.5686 37.1404 13.8729C37.1404 15.1849 37.3761 16.4048 37.8414 17.495C38.3068 18.5868 38.9684 19.538 39.8078 20.3221C40.6504 21.1094 41.6754 21.731 42.8571 22.1699C44.0435 22.6104 45.3788 22.8338 46.8236 22.8338C47.8153 22.8338 48.7566 22.7291 49.6234 22.5214C50.4875 22.3152 51.2966 22.0075 52.031 21.6092L52.2013 21.5171L52.3445 21.6498L53.3466 22.5839H57.0103L54.4052 20.1566L54.2028 19.9676L54.3853 19.7583ZM53.193 16.0081C52.9726 16.6563 52.6608 17.2467 52.2639 17.7652L52.0828 18.0027L51.8652 17.7996L48.9132 15.0459H45.2511L49.7147 19.2007L50.0448 19.5084L49.628 19.6724C48.7841 20.0035 47.8397 20.1707 46.8236 20.1707C45.8761 20.1707 44.9849 20.0223 44.1773 19.7317C43.3636 19.4396 42.6473 19.0148 42.0482 18.4697C41.4458 17.923 40.9698 17.2545 40.6321 16.4813C40.2945 15.7082 40.1241 14.8303 40.1241 13.8729C40.1241 12.9138 40.296 12.0391 40.6337 11.2738C40.9713 10.5069 41.4489 9.84928 42.0525 9.31823C42.6519 8.7903 43.3697 8.38105 44.1834 8.10303C44.991 7.82812 45.8807 7.68755 46.8266 7.68755C47.7726 7.68755 48.6607 7.82656 49.4699 8.10147C50.2836 8.37949 50.9983 8.78716 51.5961 9.31667C52.1952 9.84771 52.6728 10.5053 53.0135 11.2707C53.3558 12.036 53.5292 12.9107 53.5292 13.8698C53.5261 14.6398 53.4135 15.3583 53.193 16.0081Z" fill="#23202A"/>
<path d="M67.192 20.2804C66.7859 20.3679 66.3798 20.4116 65.9829 20.4116C65.1527 20.4116 64.444 20.3038 63.8783 20.0914C63.3003 19.8743 62.8288 19.5635 62.4774 19.1636C62.126 18.7653 61.875 18.2827 61.7306 17.7266C61.5908 17.1909 61.5208 16.5911 61.5208 15.9444V9.63574H58.7817V16.424C58.7817 17.4502 58.9048 18.3748 59.1482 19.1715C59.3854 19.9524 59.7673 20.6178 60.2797 21.152C60.7923 21.6862 61.4646 22.1001 62.2781 22.3812C63.104 22.6671 64.114 22.8124 65.2819 22.8124C65.9905 22.8124 66.7511 22.7077 67.5419 22.5C68.3297 22.2938 69.125 21.947 69.9085 21.4675L70.3219 21.2145V21.7096V22.5843H73.0717V9.63574H70.3219V18.4498V18.5607L70.2474 18.642C70.0117 18.9012 69.7259 19.1418 69.4004 19.3604C69.0795 19.576 68.7281 19.7619 68.3571 19.9165C67.9889 20.0711 67.5966 20.193 67.192 20.2804Z" fill="#23202A"/>
<path d="M81.2551 10.1224C80.4643 10.5175 79.704 10.9924 78.9936 11.5359L78.5557 11.8702V11.311V9.64755H75.8059V22.5852H78.5557V14.8348V14.7411L78.6103 14.6661C79.2369 13.8086 80.0613 13.1338 81.0606 12.6637C81.9595 12.2404 82.9997 11.9499 84.1585 11.803L83.3722 9.28516C82.6712 9.48979 81.961 9.77094 81.2551 10.1224Z" fill="#23202A"/>
<path d="M92.5091 9.40625C91.9647 9.40625 91.3928 9.43592 90.8103 9.49684C90.2262 9.5562 89.6347 9.64209 89.0491 9.75144C88.4651 9.86078 87.8856 9.99198 87.3259 10.1419C86.8651 10.2653 86.4242 10.4012 86.012 10.5449L86.8166 12.7754C87.1527 12.6301 87.51 12.502 87.8828 12.3911C88.3527 12.2521 88.8363 12.135 89.3169 12.0413C89.7975 11.9491 90.2704 11.8788 90.7205 11.8319C91.1739 11.7851 91.595 11.7617 91.9739 11.7617C92.6764 11.7617 93.3167 11.8382 93.8748 11.9881C94.4406 12.1412 94.9334 12.3599 95.3395 12.6379C95.7532 12.9222 96.0817 13.2674 96.3175 13.6626C96.5532 14.0608 96.6945 14.4998 96.7355 14.9684L96.7706 15.3651L96.395 15.2651C95.4595 15.0183 94.5395 14.8309 93.659 14.7106C92.7784 14.5903 91.9311 14.5294 91.1388 14.5294C90.0741 14.5294 89.1313 14.6325 88.3359 14.8356C87.5512 15.0371 86.8895 15.3229 86.3693 15.6869C85.86 16.0445 85.4735 16.4741 85.2212 16.9645C84.9687 17.455 84.8408 18.0079 84.8408 18.6061C84.8408 19.1997 84.9641 19.7573 85.2075 20.2602C85.4508 20.7632 85.8188 21.2099 86.3024 21.5848C86.7922 21.9659 87.4156 22.2705 88.1564 22.4876C88.9047 22.7078 89.7868 22.8203 90.7813 22.8203C91.3745 22.8203 91.9449 22.7812 92.4755 22.7031C93.0065 22.625 93.5099 22.5173 93.9722 22.3845C94.433 22.2517 94.865 22.094 95.2558 21.9175C95.6497 21.7394 96.0161 21.5488 96.3462 21.3489L96.7584 21.1006V21.591V22.5797H99.5081V16.9848C99.5081 14.4107 98.9302 12.4817 97.7895 11.2525C96.6534 10.0279 94.8772 9.40625 92.5091 9.40625ZM96.7584 17.694V18.289V18.4109L96.6717 18.4937C96.4057 18.7514 96.071 19.0013 95.6756 19.2403C95.2846 19.4761 94.8421 19.6886 94.36 19.8682C93.8809 20.0478 93.3576 20.1946 92.8026 20.304C92.2475 20.4133 91.6636 20.4695 91.0689 20.4695C90.5062 20.4695 90.0179 20.418 89.618 20.318C89.2088 20.2165 88.865 20.0775 88.5975 19.9057C88.3145 19.7245 88.1032 19.5105 87.9692 19.2684C87.8355 19.0247 87.7671 18.7639 87.7671 18.4952C87.7671 18.2406 87.8309 17.9954 87.9588 17.7627C88.088 17.5268 88.3038 17.3222 88.6006 17.1551C88.8757 17.002 89.2348 16.8786 89.6696 16.7896C90.094 16.7021 90.6292 16.6584 91.2606 16.6584C91.5617 16.6584 91.9159 16.6693 92.3174 16.6927C92.7189 16.7162 93.1524 16.7568 93.6056 16.8146C94.0574 16.8724 94.5395 16.952 95.0399 17.052C95.5371 17.1519 96.0482 17.2769 96.5593 17.4237L96.7599 17.4815V17.694H96.7584Z" fill="#23202A"/>
<path d="M114.668 11.1275C114.076 10.5621 113.363 10.131 112.548 9.84359C111.727 9.55463 110.819 9.40625 109.852 9.40625C109.112 9.40625 108.346 9.50778 107.573 9.70615C106.802 9.90452 105.981 10.2575 105.129 10.7527L104.72 10.9916V10.509V9.64679H101.97V22.5844H104.72V13.7703V13.6501L104.805 13.5673C105.091 13.2893 105.415 13.0362 105.763 12.816C106.11 12.5989 106.475 12.413 106.851 12.2662C107.223 12.1209 107.61 12.0053 107.998 11.9272C108.388 11.8476 108.776 11.807 109.147 11.807C109.853 11.807 110.501 11.9194 111.076 12.1397C111.657 12.363 112.159 12.6942 112.568 13.1206C112.977 13.5485 113.293 14.0796 113.511 14.6981C113.725 15.3104 113.833 16.0102 113.833 16.7786V22.5829H116.572V16.2304C116.572 15.1058 116.4 14.1046 116.063 13.2533C115.729 12.4068 115.26 11.6914 114.668 11.1275Z" fill="#23202A"/>
<path d="M122.003 9.64648H119.253V22.5841H122.003V9.64648Z" fill="#23202A"/>
<path d="M133.4 20.2804C132.994 20.3679 132.588 20.4116 132.191 20.4116C131.361 20.4116 130.652 20.3038 130.086 20.0914C129.508 19.8743 129.037 19.5635 128.685 19.1636C128.334 18.7653 128.083 18.2811 127.939 17.7266C127.799 17.1909 127.729 16.5911 127.729 15.9444V9.63574H124.99V16.424C124.99 17.4502 125.113 18.3748 125.356 19.1715C125.593 19.9524 125.975 20.6178 126.488 21.152C127 21.6862 127.673 22.1001 128.486 22.3812C129.312 22.6671 130.322 22.8124 131.49 22.8124C132.199 22.8124 132.959 22.7077 133.75 22.5C134.538 22.2938 135.333 21.947 136.116 21.4675L136.53 21.2145V21.7096V22.5843H139.28V9.63574H136.53V18.4498V18.5607L136.455 18.642C136.22 18.9012 135.934 19.1433 135.608 19.3604C135.288 19.5744 134.936 19.7619 134.565 19.9165C134.195 20.0711 133.803 20.193 133.4 20.2804Z" fill="#23202A"/>
<path d="M165.71 11.1279C165.121 10.564 164.4 10.1314 163.565 9.84555C162.721 9.55502 161.765 9.4082 160.723 9.4082C160.227 9.4082 159.737 9.44414 159.27 9.51441C158.807 9.58471 158.343 9.69873 157.894 9.85649C157.442 10.0142 156.984 10.2235 156.533 10.4781C156.08 10.7327 155.613 11.0498 155.143 11.4215L154.945 11.5777L154.775 11.3887C154.183 10.7296 153.461 10.2313 152.629 9.90491C151.788 9.57534 150.849 9.4082 149.841 9.4082C149.117 9.4082 148.366 9.5066 147.607 9.70341C146.854 9.8971 146.068 10.2501 145.272 10.7515L144.855 11.0139V10.5125V9.65031H142.106V22.5879H144.855V13.7707V13.6567L144.933 13.5755C145.192 13.3022 145.487 13.0538 145.811 12.8382C146.131 12.6227 146.481 12.4384 146.849 12.2869C147.216 12.1369 147.604 12.0182 147.999 11.9354C148.398 11.8527 148.801 11.8089 149.196 11.8089C149.844 11.8089 150.449 11.9214 150.995 12.1432C151.547 12.3681 152.026 12.6992 152.419 13.1272C152.81 13.5536 153.118 14.0831 153.334 14.7001C153.549 15.3124 153.657 16.0121 153.657 16.7806V22.5848H156.396V13.7473V13.6504L156.454 13.5739C156.685 13.2709 156.959 13.0038 157.269 12.7805C157.575 12.5587 157.906 12.3728 158.254 12.2291C158.6 12.0854 158.962 11.9776 159.328 11.9104C159.693 11.8433 160.053 11.8089 160.402 11.8089C161.042 11.8089 161.641 11.9214 162.18 12.1432C162.723 12.3681 163.199 12.6977 163.591 13.1256C163.983 13.552 164.291 14.0815 164.507 14.6985C164.721 15.3093 164.829 16.0106 164.829 16.7791V22.5832H167.568V16.2308C167.568 15.1046 167.404 14.1019 167.08 13.2506C166.756 12.404 166.295 11.6902 165.71 11.1279Z" fill="#23202A"/>
<defs>
<linearGradient id="paint0_linear_930_6649" x1="118.875" y1="3.94537" x2="121.862" y2="6.34808" gradientUnits="userSpaceOnUse">
<stop stop-color="#CE192D"/>
<stop offset="1" stop-color="#750D08"/>
</linearGradient>
<linearGradient id="paint1_linear_930_6649" x1="10.4254" y1="13.7388" x2="14.5366" y2="15.7403" gradientUnits="userSpaceOnUse">
<stop stop-color="#CE192D"/>
<stop offset="1" stop-color="#750D08"/>
</linearGradient>
</defs>
</svg>
