<svg width="150" height="23" viewBox="0 0 150 23" fill="none" xmlns="http://www.w3.org/2000/svg">
<path d="M127.273 6.12979C126.412 6.23351 125.668 6.35425 125.046 6.49048C124.421 6.62825 123.923 6.75674 123.549 6.87748C123.175 6.99823 122.942 7.07563 122.851 7.10969V19.3421H126.355V8.78773C126.514 8.71962 126.899 8.60662 127.512 8.45181C128.124 8.29701 128.987 8.21961 130.099 8.21961C131.528 8.21961 132.638 8.51993 133.433 9.1221C134.227 9.72428 134.624 10.6871 134.624 12.0122V19.3421H138.128V12.116C138.128 10.7738 138.524 9.7893 139.318 9.1608C140.112 8.53231 141.144 8.21961 142.414 8.21961C143.684 8.21961 144.705 8.5029 145.408 9.07102C146.11 9.63914 146.462 10.5416 146.462 11.78V19.3421H150V10.8776C150 10.0525 149.818 9.33418 149.456 8.72272C149.093 8.1128 148.594 7.60505 147.959 7.19947C147.324 6.79544 146.576 6.48893 145.714 6.28305C144.853 6.07716 143.933 5.97344 142.958 5.97344C141.529 5.97344 140.293 6.19326 139.249 6.63135C138.205 7.06944 137.389 7.65149 136.8 8.37286C136.119 7.54622 135.205 6.94095 134.061 6.55395C132.916 6.16694 131.618 5.97344 130.165 5.97344C129.099 5.97344 128.135 6.02453 127.273 6.12824M115.809 17.3034C115.626 17.3374 115.293 17.3761 114.806 17.4195C114.317 17.4628 113.677 17.4845 112.883 17.4845C110.796 17.4845 109.315 17.1578 108.443 16.5046C107.57 15.8513 107.133 14.8699 107.133 13.5634V6.64683C107.02 6.61277 106.809 6.56014 106.504 6.49203C106.198 6.42392 105.852 6.38831 105.467 6.38831C104.877 6.38831 104.423 6.48738 104.105 6.68553C103.787 6.88368 103.629 7.18863 103.629 7.60195V13.8466C103.629 15.3606 104.092 16.5742 105.023 17.486C105.772 18.2089 106.787 18.76 108.069 19.1378C109.35 19.5155 111.023 19.7059 113.087 19.7059C113.79 19.7059 114.482 19.6935 115.163 19.6672C115.843 19.6409 116.466 19.6068 117.034 19.5635C117.6 19.5201 118.082 19.4814 118.48 19.4474C118.876 19.4133 119.154 19.3777 119.313 19.3436V6.64683C119.2 6.61277 118.989 6.56014 118.684 6.49203C118.378 6.42392 118.032 6.38831 117.647 6.38831C117.057 6.38831 116.603 6.48738 116.287 6.68553C115.969 6.88368 115.81 7.18863 115.81 7.60195V17.3049L115.809 17.3034ZM96.3493 19.3436H99.8868V6.62051C99.7736 6.58646 99.5629 6.53847 99.2579 6.4781C98.9513 6.41772 98.6054 6.38831 98.2202 6.38831C97.6306 6.38831 97.1715 6.48274 96.843 6.6716C96.5144 6.86046 96.3493 7.17006 96.3493 7.60041V19.3421V19.3436ZM92.6058 19.3436V11.3172C92.6058 10.4905 92.4124 9.75214 92.0272 9.09733C91.6404 8.44407 91.0917 7.88524 90.3779 7.41929C89.6626 6.95488 88.7963 6.59729 87.7744 6.34806C86.754 6.09883 85.6188 5.97344 84.372 5.97344C83.2841 5.97344 82.2857 6.02453 81.3785 6.12824C80.4714 6.23196 79.6774 6.35271 78.9966 6.48893C78.3158 6.6267 77.7718 6.75519 77.363 6.87594C76.9543 6.99668 76.7043 7.07408 76.6147 7.10814V19.3405H80.1192V8.81095C80.3 8.74284 80.7308 8.62674 81.4115 8.46265C82.0923 8.29856 83.0105 8.21806 84.1676 8.21806C85.8688 8.21806 87.1156 8.54469 87.9096 9.19796C88.7035 9.85122 89.0997 10.8063 89.0997 12.0618V19.339H92.6042L92.6058 19.3436ZM68.0948 8.67163C68.8998 9.09424 69.3934 9.7088 69.5742 10.5169C69.6418 10.7584 69.6764 11.0153 69.6764 11.2909V11.4194C69.4044 11.3853 68.8541 11.3512 68.0272 11.3156C67.1986 11.2816 66.2757 11.2646 65.2538 11.2646C63.779 11.2646 62.5369 11.3636 61.5291 11.5618C60.5198 11.7599 59.7085 12.0386 59.0969 12.4008C58.4837 12.7615 58.0419 13.2104 57.7699 13.7429C57.4979 14.277 57.3612 14.8792 57.3612 15.5495C57.3612 16.0835 57.4634 16.599 57.6678 17.0975C57.8721 17.5975 58.2683 18.0387 58.8579 18.4272C59.4475 18.8142 60.2698 19.1238 61.3248 19.356C62.3797 19.5882 63.757 19.7043 65.4581 19.7043C67.5445 19.7043 69.2393 19.6486 70.5443 19.5371C71.8477 19.4257 72.7045 19.3359 73.1133 19.2662V11.5494C73.1133 10.5339 72.9089 9.67475 72.5001 8.96885C72.0914 8.26296 71.5081 7.69174 70.7487 7.2521C69.9893 6.81401 69.0648 6.49977 67.9753 6.31091C66.8873 6.12205 65.6625 6.02762 64.301 6.02762C63.2806 6.02762 62.43 6.09264 61.7493 6.22113C61.0685 6.34961 60.5355 6.48429 60.1503 6.62051C59.7871 6.75829 59.4978 6.92547 59.2824 7.12362C59.067 7.32176 58.9585 7.56635 58.9585 7.85892C58.9585 8.1515 59.0482 8.41002 59.2305 8.63293C59.4114 8.85584 59.6267 9.02922 59.8767 9.14842C60.0355 9.06173 60.2399 8.95492 60.4899 8.82643C60.7383 8.69795 61.0512 8.5772 61.4254 8.46575C61.7996 8.35429 62.2414 8.25522 62.7523 8.16853C63.2633 8.08184 63.8466 8.04004 64.5038 8.04004C66.0918 8.04004 67.2882 8.25057 68.0932 8.67163M69.6418 17.5619C69.4154 17.613 68.9721 17.6733 68.3149 17.743C67.6561 17.8127 66.7505 17.8467 65.5934 17.8467C64.6626 17.8467 63.8922 17.791 63.2806 17.6795C62.6674 17.5681 62.18 17.4086 61.8169 17.2012C61.4537 16.9953 61.2053 16.7461 61.0685 16.4535C60.9317 16.1609 60.8641 15.8436 60.8641 15.4984C60.8641 14.6733 61.232 14.0618 61.9694 13.6671C62.7067 13.2708 63.9252 13.0742 65.6264 13.0742C66.0351 13.0742 66.4596 13.0835 66.9014 13.1005C67.3432 13.1175 67.7567 13.1392 68.1435 13.1655C68.5287 13.1918 68.8589 13.2135 69.1309 13.2305C69.4029 13.2476 69.5727 13.2646 69.6418 13.2816V17.565V17.5619ZM55.4556 8.42705C56.1128 8.56482 56.5562 8.6933 56.7826 8.81405C56.9194 8.72736 57.0766 8.57411 57.259 8.34965C57.4398 8.12673 57.531 7.85118 57.531 7.52455C57.531 7.06015 57.2134 6.7072 56.5782 6.46571C56.2386 6.32794 55.7779 6.21648 55.2009 6.12979C54.6223 6.0431 53.8802 6.00131 52.9731 6.00131C51.9527 6.00131 51.0345 6.07406 50.217 6.22113C49.401 6.36819 48.6919 6.53073 48.0913 6.71185C47.4907 6.89296 47.0128 7.06479 46.6622 7.22888C46.31 7.39297 46.1009 7.49978 46.0333 7.55087V19.3452H49.5378V8.91931C49.6054 8.88526 49.7296 8.82953 49.912 8.75213C50.0928 8.67473 50.3365 8.59733 50.643 8.51993C50.9496 8.44253 51.3175 8.37441 51.7483 8.31404C52.1791 8.25367 52.6775 8.22426 53.2451 8.22426C54.0611 8.22426 54.7984 8.29392 55.4556 8.43014M38.9897 17.3034C38.8073 17.3374 38.474 17.3761 37.9866 17.4195C37.4976 17.4628 36.8577 17.4845 36.0638 17.4845C33.9774 17.4845 32.4964 17.1578 31.6238 16.5046C30.7496 15.8513 30.3141 14.8699 30.3141 13.5634V6.64683C30.2009 6.61277 29.9902 6.56014 29.6852 6.49203C29.3786 6.42392 29.0328 6.38831 28.6476 6.38831C28.058 6.38831 27.6036 6.48738 27.286 6.68553C26.9684 6.88368 26.8096 7.18863 26.8096 7.60195V13.8466C26.8096 15.3606 27.2734 16.5742 28.2042 17.486C28.9526 18.2089 29.9682 18.76 31.2496 19.1378C32.531 19.5155 34.2038 19.7059 36.2682 19.7059C36.9709 19.7059 37.6627 19.6935 38.3435 19.6672C39.0243 19.6409 39.6469 19.6068 40.2144 19.5635C40.7805 19.5201 41.2631 19.4814 41.6609 19.4474C42.0571 19.4133 42.3354 19.3777 42.4942 19.3436V6.64683C42.381 6.61277 42.1703 6.56014 41.8653 6.49203C41.5587 6.42392 41.2128 6.38831 40.8276 6.38831C40.238 6.38831 39.7837 6.48738 39.4676 6.68553C39.15 6.88368 38.9912 7.18863 38.9912 7.60195V17.3049L38.9897 17.3034ZM19.5129 13.2909C19.0931 14.1593 18.5208 14.8946 17.7945 15.4968L14.4268 12.1423C13.8592 12.1593 13.3152 12.2801 12.7932 12.503C12.2712 12.7274 12.0102 13.037 12.0102 13.4318C12.0102 13.6206 12.0606 13.7971 12.1628 13.9612C12.2649 14.1253 12.4065 14.3018 12.5873 14.4906L15.0368 16.9164C14.1296 17.26 13.1202 17.4318 12.0087 17.4318C10.7839 17.4318 9.66605 17.2554 8.65826 16.9024C7.64889 16.5495 6.78731 16.0634 6.07194 15.4442C5.35815 14.825 4.80787 14.0897 4.42267 13.2383C4.03748 12.3869 3.84409 11.4612 3.84409 10.4642C3.84409 9.46731 4.03748 8.54624 4.42267 7.70258C4.80787 6.86046 5.35815 6.12824 6.07194 5.50904C6.78731 4.88983 7.64889 4.4084 8.65826 4.06319C9.66763 3.71953 10.7839 3.5477 12.0087 3.5477C13.2334 3.5477 14.345 3.71953 15.3434 4.06319C16.3402 4.40685 17.197 4.88983 17.9124 5.50904C18.6262 6.12824 19.1765 6.86046 19.5617 7.70258C19.9469 8.54624 20.1402 9.46576 20.1402 10.4642C20.1402 11.4627 19.9296 12.4209 19.5113 13.2894M23.1023 6.77531C22.5127 5.63907 21.6905 4.65918 20.6355 3.83409C19.5805 3.009 18.3165 2.35883 16.8417 1.88514C15.367 1.41299 13.746 1.17615 11.9772 1.17615C10.2085 1.17615 8.59223 1.41299 7.12848 1.88514C5.66631 2.35883 4.40695 3.00745 3.35199 3.83409C2.29702 4.65918 1.47475 5.64062 0.88516 6.77531C0.295575 7.91156 0 9.14068 0 10.4658C0 11.7909 0.294003 13.02 0.88516 14.1562C1.47475 15.2925 2.29702 16.277 3.35199 17.1114C4.40695 17.9458 5.66631 18.6006 7.12848 19.0727C8.59065 19.5464 10.2069 19.7833 11.9772 19.7833C13.8592 19.7833 15.5493 19.5 17.0461 18.9319L20.244 22.1053L22.8979 20.5836L19.8698 17.5897C21.1402 16.7476 22.1433 15.7151 22.8806 14.4922C23.618 13.2708 23.9859 11.9287 23.9859 10.4658C23.9859 9.14068 23.6903 7.91156 23.1007 6.77531" fill="white"/>
<path d="M97.9839 4.70451C99.3226 4.70451 100.412 3.64901 100.412 2.35225C100.412 1.0555 99.3226 0 97.9839 0C96.6452 0 95.5555 1.0555 95.5555 2.35225C95.5555 3.64901 96.6452 4.70451 97.9839 4.70451Z" fill="white"/>
</svg>
