<svg width="184" height="72" viewBox="0 0 184 72" fill="none" xmlns="http://www.w3.org/2000/svg">
<g clip-path="url(#clip0_167_903)">
<path d="M164.995 0.00046875C164.625 0.220469 164.555 0.540469 164.635 0.940469C165.275 4.55047 165.905 8.16047 166.535 11.7605C166.725 12.8505 166.925 13.9505 167.115 15.0405C167.205 15.5205 167.185 15.5405 166.675 15.5605L155.945 15.8305C155.775 15.8305 155.605 15.8305 155.435 15.8605C154.775 15.9505 154.575 16.4205 154.965 16.9505C155.415 17.5605 155.885 18.1505 156.355 18.7505C161.675 25.6405 167.005 32.5205 172.335 39.4105C172.565 39.7105 172.785 40.0605 173.255 39.8705C173.605 39.7305 173.675 39.4505 173.575 38.8605C172.925 35.1405 172.265 31.4105 171.615 27.6805C171.445 26.7105 171.275 25.7505 171.105 24.7905C171.025 24.3705 171.065 24.3205 171.505 24.3105L182.315 24.0405H182.705C182.995 24.0305 183.265 23.9905 183.405 23.6905C183.555 23.3805 183.405 23.1405 183.235 22.9005C182.865 22.4305 182.495 21.9405 182.135 21.4805C176.725 14.4905 171.325 7.50047 165.915 0.510469C165.765 0.310469 165.615 0.110469 165.395 -0.0195312H165.005L164.995 0.00046875Z" fill="#601DFF"/>
<path d="M182.845 45.4601C182.845 45.8401 182.715 46.2601 182.475 46.7101L169.525 69.0901C169.145 69.7901 168.555 70.3701 167.765 70.8601C166.995 71.3401 166.295 71.5801 165.635 71.5801H153.195C152.235 71.5801 151.745 71.1701 151.745 70.3401C151.745 69.9601 151.865 69.5401 152.105 69.0901L163.615 49.1901C163.855 48.7501 163.975 48.3301 163.975 47.9501C163.975 47.1201 163.515 46.7101 162.575 46.7101C161.885 46.7101 161.165 46.9501 160.405 47.4301C159.645 47.9201 159.055 48.5001 158.635 49.1901L157.485 51.1801L147.135 69.0901C146.755 69.7901 146.165 70.3701 145.375 70.8601C144.615 71.3401 143.905 71.5801 143.245 71.5801H130.805C129.845 71.5801 129.355 71.1701 129.355 70.3401C129.355 69.9601 129.475 69.5401 129.725 69.0901L153.815 27.4301C154.015 27.0801 154.225 26.8001 154.425 26.5901C154.455 26.5601 154.475 26.5401 154.495 26.5201C154.805 26.2301 155.115 26.0801 155.425 26.0801C155.545 26.0801 155.665 26.1001 155.765 26.1601C156.055 26.5401 156.355 26.9201 156.645 27.3001C159.105 30.4901 161.575 33.6801 164.035 36.8601C164.595 37.5801 164.655 38.5701 164.205 39.3601L163.125 41.2501C163.125 41.2501 163.115 41.3001 163.105 41.3201C163.025 41.5701 162.915 41.8101 162.785 42.0401C162.575 42.3901 162.475 42.7201 162.475 43.0301C162.475 43.0701 162.475 43.1101 162.485 43.1501C162.535 43.8601 163.055 44.2201 164.025 44.2201H181.445C182.375 44.2201 182.845 44.6301 182.845 45.4601Z" fill="white"/>
<path d="M133.185 54.1697H120.745C119.775 54.1697 119.295 53.7597 119.295 52.9297C119.295 52.5497 119.415 52.1397 119.655 51.6897L121.105 49.1997C121.345 48.7497 121.465 48.3397 121.465 47.9597C121.465 47.1297 120.995 46.7197 120.065 46.7197C119.375 46.7197 118.645 46.9597 117.885 47.4497C117.125 47.9397 116.535 48.5197 116.125 49.2097L113.275 54.1897C112.995 54.6397 112.855 55.0497 112.855 55.4297C112.855 56.2597 113.335 56.6697 114.305 56.6697H131.715C132.685 56.6697 133.165 57.0797 133.165 57.9097C133.165 58.2897 133.025 58.6997 132.755 59.1497L127.005 69.0997C126.625 69.7897 126.035 70.3797 125.245 70.8597C124.485 71.3397 123.775 71.5897 123.125 71.5897H88.2946C87.3246 71.5897 86.8446 71.1797 86.8446 70.3497C86.8446 69.9697 86.9646 69.5597 87.2046 69.1097L90.1046 64.1297C90.4846 63.4397 91.0546 62.8497 91.8146 62.3697C92.6046 61.8897 93.3546 61.6397 94.0446 61.6397H106.485C107.415 61.6397 107.885 62.0497 107.885 62.8797C107.885 63.2597 107.765 63.6697 107.525 64.1197L106.075 66.6097C105.835 67.0597 105.715 67.4697 105.715 67.8497C105.715 68.6797 106.185 69.0897 107.115 69.0897C107.805 69.0897 108.535 68.8497 109.295 68.3597C110.085 67.8797 110.675 67.2897 111.055 66.5997L113.955 61.6197C114.195 61.1697 114.315 60.7597 114.315 60.3797C114.315 59.5497 113.835 59.1397 112.865 59.1397H95.4546C94.5246 59.1397 94.0546 58.7297 94.0546 57.8997C94.0546 57.5197 94.1746 57.1097 94.4146 56.6597L100.165 46.7097C100.545 46.0197 101.115 45.4297 101.875 44.9497C102.665 44.4697 103.415 44.2197 104.105 44.2197H138.935C139.865 44.2197 140.335 44.6297 140.335 45.4597C140.335 45.8397 140.215 46.2497 139.975 46.6997L137.075 51.6797C136.695 52.3697 136.105 52.9597 135.315 53.4397C134.555 53.9197 133.845 54.1697 133.195 54.1697H133.185Z" fill="white"/>
<path d="M83.8254 44.2202H96.2654C97.1954 44.2202 97.6654 44.6302 97.6654 45.4602C97.6654 45.8402 97.5454 46.2502 97.3054 46.7002L84.3454 69.0902C83.9654 69.7802 83.3754 70.3702 82.5854 70.8502C81.8254 71.3302 81.1154 71.5802 80.4654 71.5802H45.6354C44.6654 71.5802 44.1854 71.1702 44.1854 70.3402C44.1854 69.9602 44.3054 69.5502 44.5454 69.1002L57.5054 46.7102C57.8854 46.0202 58.4554 45.4302 59.2154 44.9502C60.0054 44.4702 60.7554 44.2202 61.4454 44.2202H73.8854C74.8154 44.2202 75.2854 44.6302 75.2854 45.4602C75.2854 45.8402 75.1654 46.2502 74.9254 46.7002L63.4254 66.6002C63.1854 67.0502 63.0654 67.4602 63.0654 67.8402C63.0654 68.6702 63.5354 69.0802 64.4654 69.0802C65.1554 69.0802 65.8854 68.8402 66.6454 68.3502C67.4354 67.8702 68.0254 67.2802 68.4054 66.5902L79.9154 46.6902C80.2954 46.0002 80.8654 45.4102 81.6254 44.9302C82.4154 44.4502 83.1654 44.2002 83.8554 44.2002L83.8254 44.2202Z" fill="white"/>
<path d="M17.745 44.2197H52.575C53.545 44.2197 54.025 44.6297 54.025 45.4597C54.025 45.8397 53.885 46.2497 53.615 46.6997L50.765 51.6797C50.385 52.3697 49.795 52.9597 49.005 53.4397C48.245 53.9197 47.515 54.1697 46.825 54.1697H34.385C33.455 54.1697 32.985 53.7597 32.985 52.9297C32.985 52.5497 33.105 52.1397 33.345 51.6897L34.795 49.1997C35.035 48.7497 35.155 48.3397 35.155 47.9597C35.155 47.1297 34.675 46.7197 33.705 46.7197C33.045 46.7197 32.325 46.9597 31.525 47.4497C30.765 47.9297 30.195 48.5197 29.815 49.2097L18.315 69.1097C17.935 69.7997 17.345 70.3897 16.555 70.8697C15.795 71.3497 15.065 71.5997 14.375 71.5997H1.93503C1.00503 71.5997 0.535034 71.1897 0.535034 70.3597C0.535034 69.9797 0.655034 69.5697 0.895034 69.1197L13.795 46.7297C14.205 46.0397 14.795 45.4497 15.555 44.9697C16.315 44.4897 17.045 44.2397 17.735 44.2397L17.745 44.2197Z" fill="white"/>
<path d="M132.265 28.8805L128.825 29.7205V1.23047H141.125V38.1305H125.235L106.925 9.69047L110.365 8.85047V38.1305H98.0653V1.23047H114.455L132.265 28.8805Z" fill="white"/>
<path d="M65.6847 17.0205H78.0847C79.3347 17.0205 80.2947 16.7205 80.9847 16.1305C81.6747 15.5405 82.0147 14.6905 82.0147 13.5705C82.0147 12.4505 81.6747 11.6005 80.9847 11.0105C80.2947 10.4205 79.3247 10.1205 78.0847 10.1205H63.9147L69.6247 4.41047V38.1205H56.9247V1.23047H80.0547C83.0047 1.23047 85.5847 1.75047 87.7847 2.80047C90.0147 3.82047 91.7347 5.24047 92.9547 7.08047C94.2047 8.92047 94.8247 11.0805 94.8247 13.5805C94.8247 16.0805 94.2047 18.1605 92.9547 20.0305C91.7447 21.8705 90.0147 23.2905 87.7847 24.3105C85.5847 25.3305 83.0147 25.8405 80.0547 25.8405H65.6847V17.0305V17.0205ZM70.0147 20.8605H84.0347L96.2847 38.1305H81.7647L70.0047 20.8605H70.0147Z" fill="white"/>
<path d="M25.5555 22.4298H36.8255L52.6655 41.0798H41.0055L25.5555 22.4298ZM31.9055 39.0198C27.4155 39.0198 23.4755 38.2198 20.0955 36.6098C16.7455 34.9998 14.1455 32.7598 12.2755 29.8698C10.4055 26.9498 9.47546 23.5598 9.47546 19.6798C9.47546 15.7998 10.4055 12.4298 12.2755 9.53984C14.1455 6.61984 16.7555 4.35984 20.0955 2.74984C23.4755 1.13984 27.4155 0.339844 31.9055 0.339844C36.3955 0.339844 40.3155 1.13984 43.6655 2.74984C47.0455 4.35984 49.6655 6.61984 51.5355 9.53984C53.4055 12.4298 54.3355 15.8098 54.3355 19.6798C54.3355 23.5498 53.4055 26.9498 51.5355 29.8698C49.6655 32.7598 47.0455 34.9998 43.6655 36.6098C40.3155 38.2198 36.3955 39.0198 31.9055 39.0198ZM31.9055 27.6998C33.9055 27.6998 35.6255 27.3898 37.0755 26.7698C38.5155 26.1098 39.6155 25.1998 40.3755 24.0098C41.1655 22.7998 41.5555 21.3498 41.5555 19.6798C41.5555 18.0098 41.1655 16.5798 40.3755 15.3998C39.6255 14.1898 38.5255 13.2698 37.0755 12.6398C35.6355 11.9798 33.9055 11.6598 31.9055 11.6598C29.9055 11.6598 28.1855 11.9898 26.7355 12.6398C25.2955 13.2598 24.1755 14.1798 23.3855 15.3998C22.6355 16.5798 22.2555 18.0098 22.2555 19.6798C22.2555 21.3498 22.6355 22.7998 23.3855 24.0098C24.1755 25.1898 25.2855 26.1098 26.7355 26.7698C28.1755 27.3898 29.9055 27.6998 31.9055 27.6998Z" fill="white"/>
</g>
<defs>
<clipPath id="clip0_167_903">
<rect width="182.93" height="71.58" fill="white" transform="translate(0.535034)"/>
</clipPath>
</defs>
</svg>
