<svg width="41" height="41" viewBox="0 0 41 41" fill="none" xmlns="http://www.w3.org/2000/svg">
<path opacity="0.5" d="M20.1233 0.376709C9.0095 0.376709 0 9.38621 0 20.5C0 31.6138 9.0095 40.6233 20.1233 40.6233C31.2371 40.6233 40.2466 31.6138 40.2466 20.5C40.2466 9.38621 31.2371 0.376709 20.1233 0.376709Z" fill="#601DFF"/>
<path fill-rule="evenodd" clip-rule="evenodd" d="M12.0049 12.3809C12.6785 11.7073 13.7707 11.7073 14.4443 12.3809L16.7441 14.6807C16.8428 14.7795 16.9271 14.8872 16.9969 15.0014C17.9192 14.4758 18.9865 14.1755 20.124 14.1755C21.2615 14.1755 22.3288 14.4758 23.2511 15.0014C23.3209 14.8872 23.4052 14.7795 23.504 14.6807L25.8038 12.3809C26.4774 11.7073 27.5695 11.7073 28.2431 12.3809C28.9167 13.0545 28.9167 14.1466 28.2431 14.8202L25.9433 17.12C25.8445 17.2188 25.7367 17.3031 25.6226 17.3729C26.1482 18.2951 26.4485 19.3625 26.4485 20.4999C26.4485 21.6374 26.1482 22.7048 25.6226 23.627C25.7367 23.6968 25.8445 23.7811 25.9433 23.8799L28.2431 26.1797C28.9167 26.8533 28.9167 27.9454 28.2431 28.619C27.5695 29.2926 26.4774 29.2926 25.8038 28.619L23.504 26.3192C23.4052 26.2204 23.3209 26.1126 23.2511 25.9985C22.3288 26.5241 21.2615 26.8244 20.124 26.8244C18.9865 26.8244 17.9192 26.5241 16.9969 25.9985C16.9271 26.1126 16.8428 26.2204 16.7441 26.3192L14.4443 28.619C13.7707 29.2926 12.6785 29.2926 12.0049 28.619C11.3313 27.9454 11.3313 26.8533 12.0049 26.1797L14.3047 23.8799C14.4035 23.7811 14.5113 23.6968 14.6255 23.627C14.0998 22.7048 13.7995 21.6374 13.7995 20.4999C13.7995 19.3625 14.0998 18.2951 14.6255 17.3729C14.5113 17.3031 14.4035 17.2188 14.3047 17.12L12.0049 14.8202C11.3313 14.1466 11.3313 13.0545 12.0049 12.3809ZM17.2493 20.4999C17.2493 18.9123 18.5363 17.6252 20.124 17.6252C21.7117 17.6252 22.9988 18.9123 22.9988 20.4999C22.9988 22.0876 21.7117 23.3747 20.124 23.3747C18.5363 23.3747 17.2493 22.0876 17.2493 20.4999Z" fill="url(#paint0_linear_73_1675)"/>
<defs>
<linearGradient id="paint0_linear_73_1675" x1="20.124" y1="11.8757" x2="20.124" y2="29.1242" gradientUnits="userSpaceOnUse">
<stop stop-color="white"/>
<stop offset="1" stop-color="#999999"/>
</linearGradient>
</defs>
</svg>
