<svg width="74" height="74" viewBox="0 0 74 74" fill="none" xmlns="http://www.w3.org/2000/svg">
<path opacity="0.5" d="M19.3014 65.9475H18.4999C15.5929 65.9475 14.1394 65.9475 13.2363 65.0444C12.3333 64.1413 12.3333 62.6878 12.3333 59.7808V56.3524C12.3333 54.7536 12.3333 53.9543 12.7439 53.2404C13.1545 52.5265 13.774 52.1662 15.013 51.4456C23.1699 46.7015 34.7539 44.0309 42.4854 48.6424C43.0048 48.9522 43.472 49.3262 43.8713 49.7746C45.5921 51.7075 45.4666 54.6247 43.4834 56.3556C43.0646 56.7211 42.6182 56.9983 42.1687 57.0947C42.5381 57.0519 42.8922 57.0028 43.23 56.9489C46.0402 56.5007 48.3991 54.999 50.5587 53.3677L56.1308 49.1584C58.0952 47.6745 61.0108 47.6742 62.9755 49.1577C64.7443 50.4933 65.2852 52.6924 64.1669 54.4848C62.8629 56.5751 61.0256 59.2493 59.2614 60.8832C57.4946 62.5196 54.8644 63.9804 52.7171 65.0168C50.3386 66.1649 47.7108 66.8264 45.038 67.2591C39.6172 68.1366 33.9677 68.0026 28.6019 66.8972C25.5686 66.2722 22.4182 65.9475 19.3014 65.9475Z" fill="url(#paint0_linear_73_1680)"/>
<path fill-rule="evenodd" clip-rule="evenodd" d="M25.6416 7.11797C26.5839 6.20703 28.1118 6.20703 29.0541 7.11797L32.2715 10.2281C32.4097 10.3617 32.5276 10.5075 32.6253 10.6618C33.9155 9.951 35.4087 9.54491 37 9.54491C38.5913 9.54491 40.0845 9.951 41.3747 10.6618C41.4724 10.5075 41.5903 10.3617 41.7285 10.2281L44.9459 7.11797C45.8883 6.20703 47.4161 6.20703 48.3585 7.11797C49.3008 8.02891 49.3008 9.50584 48.3585 10.4168L45.1411 13.5269C45.0029 13.6605 44.8521 13.7745 44.6924 13.8689C45.4277 15.1161 45.8478 16.5595 45.8478 18.0978C45.8478 19.6361 45.4277 21.0795 44.6924 22.3267C44.8521 22.4211 45.0029 22.5351 45.1411 22.6687L48.3585 25.7788C49.3008 26.6898 49.3008 28.1667 48.3585 29.0777C47.4161 29.9886 45.8883 29.9886 44.9459 29.0777L41.7285 25.9675C41.5903 25.8339 41.4724 25.6881 41.3747 25.5338C40.0845 26.2446 38.5913 26.6507 37 26.6507C35.4087 26.6507 33.9155 26.2446 32.6253 25.5338C32.5276 25.6882 32.4097 25.8339 32.2715 25.9675L29.0541 29.0777C28.1118 29.9886 26.5839 29.9886 25.6416 29.0777C24.6992 28.1667 24.6992 26.6898 25.6416 25.7788L28.859 22.6687C28.9972 22.5351 29.1479 22.4211 29.3076 22.3267C28.5723 21.0795 28.1522 19.6361 28.1522 18.0978C28.1522 16.5595 28.5723 15.1161 29.3076 13.8689C29.1479 13.7745 28.9972 13.6605 28.859 13.5269L25.6416 10.4168C24.6992 9.50584 24.6992 8.02891 25.6416 7.11797ZM32.9783 18.0978C32.9783 15.9507 34.7789 14.2101 37 14.2101C39.2212 14.2101 41.0218 15.9507 41.0218 18.0978C41.0218 20.2449 39.2212 21.9855 37 21.9855C34.7789 21.9855 32.9783 20.2449 32.9783 18.0978Z" fill="url(#paint1_linear_73_1680)"/>
<defs>
<linearGradient id="paint0_linear_73_1680" x1="15.6093" y1="30.737" x2="19.7682" y2="65.3666" gradientUnits="userSpaceOnUse">
<stop stop-color="white"/>
<stop offset="1" stop-color="#A3A3A3"/>
</linearGradient>
<linearGradient id="paint1_linear_73_1680" x1="37" y1="6.43475" x2="37" y2="29.7608" gradientUnits="userSpaceOnUse">
<stop stop-color="white"/>
<stop offset="1" stop-color="#999999"/>
</linearGradient>
</defs>
</svg>
