<svg width="74" height="74" viewBox="0 0 74 74" fill="none" xmlns="http://www.w3.org/2000/svg">
<path d="M31.7889 53.4776C34.1554 50.7773 35.3386 49.4271 36.7995 49.3393C36.9331 49.3313 37.067 49.3313 37.2006 49.3393C38.6615 49.4271 39.8448 50.7773 42.2113 53.4776C47.3604 59.3532 49.935 62.2909 49.2142 64.8256C49.1523 65.0435 49.0753 65.2554 48.9841 65.4595C47.9231 67.8333 44.2821 67.8333 37.0001 67.8333C29.7181 67.8333 26.0771 67.8333 25.016 65.4595C24.9248 65.2554 24.8479 65.0435 24.7859 64.8256C24.0652 62.2909 26.6397 59.3532 31.7889 53.4776Z" fill="url(#paint0_linear_73_1660)"/>
<path d="M44.7084 38.5416C44.7084 42.7988 41.2573 46.25 37.0001 46.25C32.7429 46.25 29.2917 42.7988 29.2917 38.5416C29.2917 34.2845 32.7429 30.8333 37.0001 30.8333C41.2573 30.8333 44.7084 34.2845 44.7084 38.5416Z" fill="url(#paint1_linear_73_1660)"/>
<g opacity="0.7">
<path fill-rule="evenodd" clip-rule="evenodd" d="M36.9994 24.7737C28.683 24.7737 21.9412 31.408 21.9412 39.5918C21.9412 43.6843 23.6243 47.3859 26.3517 50.0698C27.1917 50.8964 27.1917 52.2368 26.3517 53.0635C25.5116 53.8901 24.1495 53.8901 23.3095 53.0635C19.8083 49.6181 17.6389 44.8522 17.6389 39.5918C17.6389 29.0698 26.3069 20.54 36.9994 20.54C47.6919 20.54 56.3598 29.0698 56.3598 39.5918C56.3598 44.8522 54.1905 49.6181 50.6893 53.0635C49.8492 53.8901 48.4872 53.8901 47.6471 53.0635C46.807 52.2368 46.807 50.8964 47.6471 50.0698C50.3744 47.3859 52.0575 43.6843 52.0575 39.5918C52.0575 31.408 45.3158 24.7737 36.9994 24.7737Z" fill="url(#paint2_linear_73_1660)"/>
</g>
<g opacity="0.4">
<path fill-rule="evenodd" clip-rule="evenodd" d="M37.0001 13.4837C22.3474 13.4837 10.4691 25.1727 10.4691 39.5918C10.4691 46.8019 13.4363 53.326 18.2398 58.0529C19.0799 58.8796 19.0799 60.22 18.2398 61.0466C17.3997 61.8733 16.0377 61.8733 15.1976 61.0466C9.62024 55.5582 6.16675 47.9698 6.16675 39.5918C6.16675 22.8345 19.9713 9.25 37.0001 9.25C54.0289 9.25 67.8334 22.8345 67.8334 39.5918C67.8334 47.9698 64.3799 55.5582 58.8025 61.0466C57.9625 61.8733 56.6004 61.8733 55.7603 61.0466C54.9203 60.22 54.9203 58.8796 55.7603 58.0529C60.5639 53.326 63.5311 46.8019 63.5311 39.5918C63.5311 25.1727 51.6527 13.4837 37.0001 13.4837Z" fill="url(#paint3_linear_73_1660)"/>
</g>
<defs>
<linearGradient id="paint0_linear_73_1660" x1="26.2084" y1="4.23956" x2="48.3225" y2="54.786" gradientUnits="userSpaceOnUse">
<stop stop-color="white"/>
<stop offset="1" stop-color="#A3A3A3"/>
</linearGradient>
<linearGradient id="paint1_linear_73_1660" x1="26.2084" y1="4.23956" x2="48.3225" y2="54.786" gradientUnits="userSpaceOnUse">
<stop stop-color="white"/>
<stop offset="1" stop-color="#A3A3A3"/>
</linearGradient>
<linearGradient id="paint2_linear_73_1660" x1="20.059" y1="-3.28191" x2="32.7363" y2="47.4976" gradientUnits="userSpaceOnUse">
<stop stop-color="white"/>
<stop offset="1" stop-color="#A3A3A3"/>
</linearGradient>
<linearGradient id="paint3_linear_73_1660" x1="10.0209" y1="-28.4245" x2="29.9469" y2="51.9491" gradientUnits="userSpaceOnUse">
<stop stop-color="white"/>
<stop offset="1" stop-color="#A3A3A3"/>
</linearGradient>
</defs>
</svg>
