<svg width="74" height="74" viewBox="0 0 74 74" fill="none" xmlns="http://www.w3.org/2000/svg">
<path d="M47.7916 23.125C47.7916 29.0851 42.96 33.9166 36.9999 33.9166C31.0398 33.9166 26.2083 29.0851 26.2083 23.125C26.2083 17.1649 31.0398 12.3333 36.9999 12.3333C42.96 12.3333 47.7916 17.1649 47.7916 23.125Z" fill="url(#paint0_linear_73_1668)"/>
<path opacity="0.4" d="M60.1249 23.125C60.1249 27.3822 56.6738 30.8334 52.4166 30.8334C48.1594 30.8334 44.7083 27.3822 44.7083 23.125C44.7083 18.8678 48.1594 15.4167 52.4166 15.4167C56.6738 15.4167 60.1249 18.8678 60.1249 23.125Z" fill="url(#paint1_linear_73_1668)"/>
<path opacity="0.4" d="M13.8751 23.125C13.8751 27.3822 17.3262 30.8334 21.5834 30.8334C25.8406 30.8334 29.2917 27.3822 29.2917 23.125C29.2917 18.8678 25.8406 15.4167 21.5834 15.4167C17.3262 15.4167 13.8751 18.8678 13.8751 23.125Z" fill="url(#paint2_linear_73_1668)"/>
<path d="M55.5 50.875C55.5 56.8351 47.2173 61.6666 37 61.6666C26.7827 61.6666 18.5 56.8351 18.5 50.875C18.5 44.9149 26.7827 40.0833 37 40.0833C47.2173 40.0833 55.5 44.9149 55.5 50.875Z" fill="url(#paint3_linear_73_1668)"/>
<path opacity="0.4" d="M67.8334 50.875C67.8334 55.1322 62.3116 58.5834 55.5001 58.5834C48.6886 58.5834 43.1667 55.1322 43.1667 50.875C43.1667 46.6178 48.6886 43.1667 55.5001 43.1667C62.3116 43.1667 67.8334 46.6178 67.8334 50.875Z" fill="url(#paint4_linear_73_1668)"/>
<path opacity="0.4" d="M6.16658 50.875C6.16658 55.1322 11.6884 58.5834 18.4999 58.5834C25.3114 58.5834 30.8333 55.1322 30.8333 50.875C30.8333 46.6178 25.3114 43.1667 18.4999 43.1667C11.6884 43.1667 6.16658 46.6178 6.16658 50.875Z" fill="url(#paint5_linear_73_1668)"/>
<defs>
<linearGradient id="paint0_linear_73_1668" x1="27.5572" y1="-3.17971" x2="36.9999" y2="29.1953" gradientUnits="userSpaceOnUse">
<stop stop-color="white"/>
<stop offset="1" stop-color="#A3A3A3"/>
</linearGradient>
<linearGradient id="paint1_linear_73_1668" x1="45.6718" y1="4.33596" x2="52.4166" y2="27.461" gradientUnits="userSpaceOnUse">
<stop stop-color="white"/>
<stop offset="1" stop-color="#A3A3A3"/>
</linearGradient>
<linearGradient id="paint2_linear_73_1668" x1="28.3282" y1="4.33596" x2="21.5834" y2="27.461" gradientUnits="userSpaceOnUse">
<stop stop-color="white"/>
<stop offset="1" stop-color="#A3A3A3"/>
</linearGradient>
<linearGradient id="paint3_linear_73_1668" x1="20.8125" y1="24.5703" x2="26.6212" y2="58.7111" gradientUnits="userSpaceOnUse">
<stop stop-color="white"/>
<stop offset="1" stop-color="#A3A3A3"/>
</linearGradient>
<linearGradient id="paint4_linear_73_1668" x1="44.7084" y1="32.086" x2="49.1354" y2="56.3712" gradientUnits="userSpaceOnUse">
<stop stop-color="white"/>
<stop offset="1" stop-color="#A3A3A3"/>
</linearGradient>
<linearGradient id="paint5_linear_73_1668" x1="29.2916" y1="32.086" x2="24.8646" y2="56.3712" gradientUnits="userSpaceOnUse">
<stop stop-color="white"/>
<stop offset="1" stop-color="#A3A3A3"/>
</linearGradient>
</defs>
</svg>
