<svg width="66" height="66" viewBox="0 0 66 66" fill="none" xmlns="http://www.w3.org/2000/svg">
<path d="M13.4519 26.4394C13.4519 25.3328 14.3419 24.4358 15.4399 24.4358H26.0423C27.1402 24.4358 28.0302 25.3328 28.0302 26.4394C28.0302 27.5459 27.1402 28.4429 26.0423 28.4429H15.4399C14.3419 28.4429 13.4519 27.5459 13.4519 26.4394Z" fill="url(#paint0_linear_73_1650)"/>
<path fill-rule="evenodd" clip-rule="evenodd" d="M58.2682 27.5104C58.0969 27.4999 57.9106 27.4999 57.7173 27.5L57.6691 27.5H50.091C43.8447 27.5 38.5 32.2742 38.5 38.5C38.5 44.7258 43.8447 49.5 50.091 49.5H57.6691L57.7173 49.5C57.9106 49.5001 58.0969 49.5001 58.2682 49.4896C60.8053 49.3341 63.0492 47.4062 63.2378 44.7134C63.2502 44.5368 63.2501 44.3465 63.25 44.1701L63.25 44.1222V32.8778L63.25 32.8299C63.2501 32.6535 63.2502 32.4632 63.2378 32.2866C63.0492 29.5938 60.8053 27.6659 58.2682 27.5104ZM49.4191 41.4333C51.0272 41.4333 52.3309 40.12 52.3309 38.5C52.3309 36.8799 51.0272 35.5666 49.4191 35.5666C47.811 35.5666 46.5073 36.8799 46.5073 38.5C46.5073 40.12 47.811 41.4333 49.4191 41.4333Z" fill="url(#paint1_linear_73_1650)"/>
<path opacity="0.5" d="M58.1334 27.5042C58.1334 24.2575 58.0153 20.7748 55.9399 18.2781C55.7395 18.0371 55.5262 17.8031 55.2991 17.5759C53.2411 15.5179 50.6315 14.6046 47.4073 14.1711C44.2745 13.7499 40.2715 13.75 35.2177 13.75H29.4073C24.3535 13.75 20.3505 13.7499 17.2177 14.1711C13.9935 14.6046 11.3839 15.5179 9.32592 17.5759C7.26792 19.6339 6.3546 22.2435 5.92112 25.4677C5.49993 28.6005 5.49996 32.6035 5.5 37.6573V37.9676C5.49996 43.0215 5.49993 47.0245 5.92112 50.1573C6.3546 53.3815 7.26792 55.9911 9.32592 58.0491C11.3839 60.1071 13.9935 61.0204 17.2177 61.4539C20.3505 61.8751 24.3535 61.875 29.4072 61.875H35.2176C40.2714 61.875 44.2745 61.8751 47.4073 61.4539C50.6315 61.0204 53.2411 60.1071 55.2991 58.0491C55.8615 57.4867 56.3391 56.882 56.7452 56.2336C57.9839 54.255 58.1334 51.8301 58.1334 49.4958C58.0008 49.5001 57.861 49.5 57.7174 49.5L50.091 49.5C43.8447 49.5 38.5 44.7258 38.5 38.5C38.5 32.2742 43.8447 27.5 50.091 27.5L57.7173 27.5C57.8609 27.5 58.0008 27.4999 58.1334 27.5042Z" fill="url(#paint2_linear_73_1650)"/>
<path d="M27.779 7.07331L22 10.9795L17.2335 14.169C20.364 13.7499 24.3621 13.75 29.4074 13.75H35.2177C40.2716 13.75 44.2745 13.7499 47.4074 14.1711C48.0375 14.2558 48.6442 14.3589 49.2279 14.4853L44 11L38.1906 7.07331C35.0871 4.97556 30.8826 4.97556 27.779 7.07331Z" fill="url(#paint3_linear_73_1650)"/>
<defs>
<linearGradient id="paint0_linear_73_1650" x1="14.363" y1="21.5557" x2="14.8826" y2="28.036" gradientUnits="userSpaceOnUse">
<stop stop-color="white"/>
<stop offset="1" stop-color="#A3A3A3"/>
</linearGradient>
<linearGradient id="paint1_linear_73_1650" x1="40.0469" y1="11.6875" x2="48.7456" y2="45.2396" gradientUnits="userSpaceOnUse">
<stop stop-color="white"/>
<stop offset="1" stop-color="#A3A3A3"/>
</linearGradient>
<linearGradient id="paint2_linear_73_1650" x1="8.78958" y1="-20.8398" x2="28.2915" y2="52.2878" gradientUnits="userSpaceOnUse">
<stop stop-color="white"/>
<stop offset="1" stop-color="#A3A3A3"/>
</linearGradient>
<linearGradient id="paint3_linear_73_1650" x1="19.2332" y1="-0.958153" x2="20.4231" y2="13.5688" gradientUnits="userSpaceOnUse">
<stop stop-color="white"/>
<stop offset="1" stop-color="#A3A3A3"/>
</linearGradient>
</defs>
</svg>
