<svg width="28" height="28" viewBox="0 0 28 28" fill="none" xmlns="http://www.w3.org/2000/svg">
<path d="M18.6667 5.83331L22.1667 2.33331M22.1667 2.33331L25.6667 5.83331M22.1667 2.33331V9.33331M14.5833 3.49998H9.1C7.13982 3.49998 6.15972 3.49998 5.41103 3.88146C4.75247 4.21701 4.21703 4.75245 3.88148 5.41101C3.5 6.1597 3.5 7.1398 3.5 9.09998V18.9C3.5 20.8602 3.5 21.8403 3.88148 22.5889C4.21703 23.2475 4.75247 23.7829 5.41103 24.1185C6.15972 24.5 7.13982 24.5 9.1 24.5H19.8333C20.9183 24.5 21.4608 24.5 21.9059 24.3807C23.1137 24.0571 24.0571 23.1137 24.3807 21.9058C24.5 21.4608 24.5 20.9183 24.5 19.8333M12.25 9.91665C12.25 11.2053 11.2053 12.25 9.91667 12.25C8.628 12.25 7.58333 11.2053 7.58333 9.91665C7.58333 8.62798 8.628 7.58331 9.91667 7.58331C11.2053 7.58331 12.25 8.62798 12.25 9.91665ZM17.4884 13.9045L7.61967 22.876C7.06459 23.3807 6.78705 23.633 6.7625 23.8515C6.74122 24.041 6.81386 24.2289 6.95705 24.3548C7.12224 24.5 7.49733 24.5 8.2475 24.5H19.1986C20.8777 24.5 21.7172 24.5 22.3766 24.2179C23.2043 23.8638 23.8638 23.2043 24.2179 22.3765C24.5 21.7172 24.5 20.8776 24.5 19.1986C24.5 18.6337 24.5 18.3512 24.4382 18.0882C24.3606 17.7576 24.2118 17.4479 24.0021 17.1808C23.8353 16.9682 23.6147 16.7918 23.1736 16.4388L19.9101 13.8281C19.4686 13.4749 19.2479 13.2983 19.0048 13.2359C18.7905 13.181 18.565 13.1881 18.3546 13.2565C18.1159 13.334 17.9067 13.5242 17.4884 13.9045Z" stroke="white" stroke-width="2.2" stroke-linecap="round" stroke-linejoin="round"/>
</svg>
